<svg xmlns="http://www.w3.org/2000/svg" xmlns:xlink="http://www.w3.org/1999/xlink" width="264.23999999999995" height="56.256"><path fill="#000" d="M18.86 44.54L24.67 44.54L24.67 11.18L16.22 11.18C7.73 11.18 3.26 15.55 3.26 21.98C3.26 27.12 5.71 30.14 10.08 33.26L2.50 44.54L8.78 44.54L17.23 31.92L14.30 29.95C10.75 27.55 9.02 25.68 9.02 21.65C9.02 18.10 11.52 15.70 16.27 15.70L18.86 15.70ZM130.85 45.02C133.49 45.02 135.36 44.54 136.75 43.54L136.75 38.88C135.31 39.89 133.58 40.51 131.18 40.51C127.10 40.51 125.42 37.34 125.42 32.35C125.42 27.12 127.49 24.43 131.23 24.43C133.44 24.43 135.60 25.20 136.75 25.92L136.75 21.07C135.55 20.40 133.44 19.92 130.61 19.92C123.31 19.92 119.52 25.15 119.52 32.50C119.52 40.56 123.22 45.02 130.85 45.02ZM95.14 42.91L95.14 38.26C93.36 39.46 90.38 40.51 87.60 40.51C83.42 40.51 81.84 38.54 81.60 34.51L95.38 34.51L95.38 31.49C95.38 23.09 91.68 19.92 85.97 19.92C79.01 19.92 75.70 25.25 75.70 32.54C75.70 40.94 79.82 45.02 87.12 45.02C90.77 45.02 93.46 44.06 95.14 42.91ZM113.38 44.54L119.86 44.54L110.69 31.73L118.75 20.40L112.99 20.40L104.93 31.73L104.93 20.40L99.22 20.40L99.22 44.54L104.93 44.54L104.93 32.88ZM74.30 40.03L71.76 40.03L71.76 20.40L55.10 20.40L55.10 22.46C55.10 28.37 54.72 36 52.70 40.03L50.93 40.03L50.93 50.06L56.21 50.06L56.21 44.54L69.02 44.54L69.02 50.06L74.30 50.06ZM42.82 20.40L42.82 29.95L35.18 29.95L35.18 20.40L29.47 20.40L29.47 44.54L35.18 44.54L35.18 34.46L42.82 34.46L42.82 44.54L48.53 44.54L48.53 20.40ZM85.87 24.43C88.70 24.43 89.57 26.78 89.57 29.81L89.57 30.29L81.60 30.29C81.74 26.45 83.14 24.43 85.87 24.43ZM66.05 40.03L57.98 40.03C59.57 36.38 60 29.81 60 25.63L60 24.91L66.05 24.91ZM166.56 44.54L173.33 44.54L161.47 27.02L172.22 11.18L166.32 11.18L156 26.54L156 11.18L150.19 11.18L150.19 44.54L156 44.54L156 28.90ZM192.82 28.08C192.82 22.22 189.84 20.02 183.79 20.02C180 20.02 177.02 21.22 175.30 22.22L175.30 26.98C176.83 25.82 180.19 24.58 183.12 24.58C185.86 24.58 187.10 25.54 187.10 28.13L187.10 29.47L186.19 29.47C177.46 29.47 173.57 32.35 173.57 37.25C173.57 42.14 176.54 44.88 180.96 44.88C184.32 44.88 185.76 43.78 186.86 42.62L187.10 42.62C187.15 43.25 187.34 44.06 187.54 44.54L193.10 44.54C192.91 42.58 192.82 40.61 192.82 38.64ZM187.10 38.78C186.38 39.84 185.04 40.70 183.02 40.70C180.62 40.70 179.42 39.36 179.42 37.30C179.42 34.56 181.39 33.55 186.29 33.55L187.10 33.55ZM197.42 20.40L197.42 44.54L203.14 44.54L203.14 24.91L210.53 24.91L210.53 44.54L216.24 44.54L216.24 20.40ZM229.73 32.16C227.38 32.16 226.27 30.91 226.27 27.98L226.27 20.40L220.56 20.40L220.56 27.94C220.56 33.79 223.34 36.58 228.34 36.58C230.40 36.58 232.13 36.05 233.47 35.23L233.47 44.54L239.18 44.54L239.18 20.40L233.47 20.40L233.47 31.10C232.46 31.82 231.17 32.16 229.73 32.16ZM262.03 28.08C262.03 22.22 259.06 20.02 253.01 20.02C249.22 20.02 246.24 21.22 244.51 22.22L244.51 26.98C246.05 25.82 249.41 24.58 252.34 24.58C255.07 24.58 256.32 25.54 256.32 28.13L256.32 29.47L255.41 29.47C246.67 29.47 242.78 32.35 242.78 37.25C242.78 42.14 245.76 44.88 250.18 44.88C253.54 44.88 254.98 43.78 256.08 42.62L256.32 42.62C256.37 43.25 256.56 44.06 256.75 44.54L262.32 44.54C262.13 42.58 262.03 40.61 262.03 38.64ZM256.32 38.78C255.60 39.84 254.26 40.70 252.24 40.70C249.84 40.70 248.64 39.36 248.64 37.30C248.64 34.56 250.61 33.55 255.50 33.55L256.32 33.55Z"/></svg>