<?xml version="1.0" encoding="UTF-8" standalone="no"?>
<svg
   width="500"
   height="500"
   viewBox="0 0 500 500"
   fill="none"
   version="1.1"
   id="svg3"
   xml:space="preserve"
   sodipodi:docname="x-twitter-behind.svg"
   inkscape:version="1.3.2 (091e20ef0f, 2023-11-25)"
   xmlns:inkscape="http://www.inkscape.org/namespaces/inkscape"
   xmlns:sodipodi="http://sodipodi.sourceforge.net/DTD/sodipodi-0.dtd"
   xmlns:xlink="http://www.w3.org/1999/xlink"
   xmlns="http://www.w3.org/2000/svg"
   xmlns:svg="http://www.w3.org/2000/svg"><sodipodi:namedview
     id="namedview1"
     pagecolor="#ffffff"
     bordercolor="#000000"
     borderopacity="0.25"
     inkscape:showpageshadow="2"
     inkscape:pageopacity="0.0"
     inkscape:pagecheckerboard="0"
     inkscape:deskcolor="#d1d1d1"
     inkscape:zoom="0.63993164"
     inkscape:cx="-74.226679"
     inkscape:cy="21.096003"
     inkscape:window-width="1920"
     inkscape:window-height="1144"
     inkscape:window-x="0"
     inkscape:window-y="28"
     inkscape:window-maximized="1"
     inkscape:current-layer="svg3" /><defs
     id="defs3"><linearGradient
       id="linearGradient13"
       inkscape:collect="always"><stop
         style="stop-color:#0e0e0e;stop-opacity:0;"
         offset="0"
         id="stop14" /><stop
         style="stop-color:#0e0e0e;stop-opacity:1;"
         offset="1"
         id="stop13" /></linearGradient><linearGradient
       inkscape:collect="always"
       xlink:href="#linearGradient13"
       id="linearGradient14"
       x1="75.990234"
       y1="245.71582"
       x2="416.43164"
       y2="245.71582"
       gradientUnits="userSpaceOnUse" /></defs><path
     fill="#1d9bf0"
     d="m 394.82419,168.7725 c 0.23096,3.2986 0.23096,6.59717 0.23096,9.92618 0,101.43541 -78.18672,218.42132 -221.15452,218.42132 v -0.0608 C 131.66748,397.12 90.311612,385.1721 54.758215,362.64439 c 6.141062,0.72966 12.31284,1.09447 18.500069,1.10969 34.999346,0.0305 68.998266,-11.56786 96.532926,-32.92511 -33.26015,-0.62322 -62.42625,-22.04128 -72.615153,-53.30947 11.651053,2.21934 23.656083,1.76331 35.091653,-1.32246 -36.26137,-7.23561 -62.349267,-38.70143 -62.349267,-75.2443 v -0.97286 c 10.804526,5.94352 22.901913,9.24211 35.276367,9.60695 -34.152841,-22.54289 -44.680343,-67.41588 -24.056268,-102.49949 39.462758,47.95876 97.687238,77.11404 160.190438,80.19981 -6.26418,-26.66235 2.29327,-54.60156 22.48639,-73.34422 31.30546,-29.064059 80.54153,-27.574369 109.96932,3.32898 17.4073,-3.38979 34.09122,-9.69815 49.35919,-18.63625 -5.80242,17.76982 -17.94597,32.86427 -34.1682,42.45601 15.40649,-1.79369 30.45898,-5.86752 44.63416,-12.08465 -10.43515,15.44406 -23.57916,28.8968 -38.78558,39.76546 z"
     id="path1"
     style="display:inline;stroke-width:1.52957" /><path
     id="path5"
     style="stroke:none;fill:url(#linearGradient14);fill-opacity:1"
     d="M 243.73242 144.48633 C 238.92626 158.02036 237.93281 172.83555 241.32812 187.28711 C 178.82499 184.20134 120.60139 155.0466 81.138672 107.08789 C 79.088452 110.57552 77.432157 114.17857 75.990234 117.82812 C 113.81462 167.28561 151.63854 216.74367 189.46289 266.20117 C 172.63939 285.42841 155.81557 304.65547 138.99219 323.88281 C 148.4786 328.15768 158.9059 330.62416 169.79102 330.82812 C 151.33964 345.13992 129.97804 355.04474 107.36523 360.0293 C 101.38585 366.86308 95.407139 373.69749 89.427734 380.53125 C 113.95326 390.55877 140.19733 396.14426 166.90234 396.94531 C 188.70925 372.02827 210.51541 347.11045 232.32227 322.19336 C 245.84416 339.8745 259.36653 357.55537 272.88867 375.23633 C 310.00767 357.25183 339.05448 329.59464 359.49219 297.58008 C 341.88853 274.30808 324.28527 251.03569 306.68164 227.76367 C 343.26489 185.95183 379.84826 144.13986 416.43164 102.32812 C 403.03199 109.31953 388.67736 114.37147 373.78516 117.27148 C 362.04739 104.94517 347.14573 97.381177 331.5 94.486328 C 309.05032 120.14921 286.60012 145.81177 264.15039 171.47461 C 257.34453 162.47843 250.53799 153.48272 243.73242 144.48633 z " /><path
     d="m 353.30267,90.830125 h 54.58 l -119.248,136.290005 140.288,185.46 h -109.85 l -86.026,-112.48 -98.439,112.48 H 79.992666 L 207.53767,266.80313 72.963666,90.830125 H 185.59267 l 77.764,102.812005 z m -19.16,289.080005 h 30.24 l -195.224,-258.126 h -32.456 z"
     fill="#ffffff"
     id="path2"
     style="display:inline" /></svg>
