<svg xmlns="http://www.w3.org/2000/svg" xmlns:xlink="http://www.w3.org/1999/xlink" width="306.72" height="56.256"><path fill="#000" d="M22.94 27.31L30.05 11.18L24.14 11.18L17.04 27.31ZM19.15 44.54L19.15 38.88C19.15 34.61 18.62 33.36 16.99 29.81L8.45 11.18L2.40 11.18L13.34 34.99L13.34 44.54ZM83.62 45.02C86.30 45.02 88.51 43.78 90.05 41.42L90.34 44.54L95.62 44.54L95.62 11.18L89.90 11.18L89.90 23.23C88.46 21.07 86.35 19.92 83.86 19.92C78.34 19.92 74.50 24.58 74.50 32.64C74.50 40.61 78.24 45.02 83.62 45.02ZM118.70 42.91L118.70 38.26C116.93 39.46 113.95 40.51 111.17 40.51C106.99 40.51 105.41 38.54 105.17 34.51L118.94 34.51L118.94 31.49C118.94 23.09 115.25 19.92 109.54 19.92C102.58 19.92 99.26 25.25 99.26 32.54C99.26 40.94 103.39 45.02 110.69 45.02C114.34 45.02 117.02 44.06 118.70 42.91ZM57.22 27.22C58.27 25.92 59.95 24.82 62.02 24.82C64.03 24.82 64.94 25.68 64.94 27.50L64.94 44.54L70.66 44.54L70.66 26.93C70.66 22.13 68.74 20.02 64.08 20.02C60.67 20.02 58.66 21.26 57.50 22.42L57.22 22.42L57.07 20.40L51.50 20.40L51.50 44.54L57.22 44.54ZM46.85 28.08C46.85 22.22 43.87 20.02 37.82 20.02C34.03 20.02 31.06 21.22 29.33 22.22L29.33 26.98C30.86 25.82 34.22 24.58 37.15 24.58C39.89 24.58 41.14 25.54 41.14 28.13L41.14 29.47L40.22 29.47C31.49 29.47 27.60 32.35 27.60 37.25C27.60 42.14 30.58 44.88 34.99 44.88C38.35 44.88 39.79 43.78 40.90 42.62L41.14 42.62C41.18 43.25 41.38 44.06 41.57 44.54L47.14 44.54C46.94 42.58 46.85 40.61 46.85 38.64ZM136.27 44.54L142.70 44.54L134.83 32.11L141.65 20.40L135.94 20.40L131.81 27.70L127.20 20.40L120.77 20.40L128.06 31.97L120.48 44.54L126.29 44.54L131.14 36.38ZM85.30 24.43C88.37 24.43 89.90 26.88 89.90 32.45C89.90 38.06 88.27 40.51 85.06 40.51C81.94 40.51 80.40 38.11 80.40 32.64C80.40 26.93 82.03 24.43 85.30 24.43ZM109.44 24.43C112.27 24.43 113.14 26.78 113.14 29.81L113.14 30.29L105.17 30.29C105.31 26.45 106.70 24.43 109.44 24.43ZM41.14 38.78C40.42 39.84 39.07 40.70 37.06 40.70C34.66 40.70 33.46 39.36 33.46 37.30C33.46 34.56 35.42 33.55 40.32 33.55L41.14 33.55ZM168.43 45.02C172.03 45.02 174.48 43.73 175.97 42.72L175.97 38.06C174.05 39.46 171.94 40.51 168.86 40.51C163.58 40.51 161.09 36.24 161.09 27.89C161.09 19.30 163.49 15.22 169.15 15.22C171.79 15.22 174.24 16.37 175.97 17.47L175.97 12.82C174.43 11.71 171.94 10.70 168.86 10.70C159.98 10.70 155.18 17.23 155.18 27.89C155.18 38.83 160.18 45.02 168.43 45.02ZM197.86 28.08C197.86 22.22 194.88 20.02 188.83 20.02C185.04 20.02 182.06 21.22 180.34 22.22L180.34 26.98C181.87 25.82 185.23 24.58 188.16 24.58C190.90 24.58 192.14 25.54 192.14 28.13L192.14 29.47L191.23 29.47C182.50 29.47 178.61 32.35 178.61 37.25C178.61 42.14 181.58 44.88 186.00 44.88C189.36 44.88 190.80 43.78 191.90 42.62L192.14 42.62C192.19 43.25 192.38 44.06 192.58 44.54L198.14 44.54C197.95 42.58 197.86 40.61 197.86 38.64ZM192.14 38.78C191.42 39.84 190.08 40.70 188.06 40.70C185.66 40.70 184.46 39.36 184.46 37.30C184.46 34.56 186.43 33.55 191.33 33.55L192.14 33.55ZM207.74 20.40L202.46 20.40L202.46 51.50L208.18 51.50L208.18 41.71C209.62 43.87 211.73 45.02 214.18 45.02C219.74 45.02 223.58 40.56 223.58 32.45C223.58 24.38 219.84 19.92 214.46 19.92C211.78 19.92 209.57 21.17 208.03 23.52ZM212.74 40.51C209.71 40.51 208.18 38.06 208.18 32.50C208.18 26.88 209.81 24.43 213.02 24.43C216.14 24.43 217.68 26.88 217.68 32.45C217.68 38.06 216.05 40.51 212.74 40.51ZM225.02 20.40L225.02 24.91L228.05 24.91L228.05 37.30C228.05 41.81 230.59 45.02 235.87 45.02C238.66 45.02 240.24 44.40 240.24 44.40L240.24 39.74C240.24 39.74 239.18 40.51 237.26 40.51C234.86 40.51 233.76 39.12 233.76 37.34L233.76 24.91L239.76 24.91L239.76 20.40L233.76 20.40L233.76 15.12L228.05 15.12L228.05 20.40ZM253.01 45.02C255.65 45.02 257.52 44.54 258.91 43.54L258.91 38.88C257.47 39.89 255.74 40.51 253.34 40.51C249.26 40.51 247.58 37.34 247.58 32.35C247.58 27.12 249.65 24.43 253.39 24.43C255.60 24.43 257.76 25.20 258.91 25.92L258.91 21.07C257.71 20.40 255.60 19.92 252.77 19.92C245.47 19.92 241.68 25.15 241.68 32.50C241.68 40.56 245.38 45.02 253.01 45.02ZM268.46 27.22C269.52 25.92 271.20 24.82 273.26 24.82C275.28 24.82 276.19 25.68 276.19 27.50L276.19 44.54L281.90 44.54L281.90 26.93C281.90 22.13 279.98 20.02 275.33 20.02C271.92 20.02 269.90 21.26 268.75 22.42L268.46 22.42L268.46 11.18L262.75 11.18L262.75 44.54L268.46 44.54ZM304.51 28.08C304.51 22.22 301.54 20.02 295.49 20.02C291.70 20.02 288.72 21.22 286.99 22.22L286.99 26.98C288.53 25.82 291.89 24.58 294.82 24.58C297.55 24.58 298.80 25.54 298.80 28.13L298.80 29.47L297.89 29.47C289.15 29.47 285.26 32.35 285.26 37.25C285.26 42.14 288.24 44.88 292.66 44.88C296.02 44.88 297.46 43.78 298.56 42.62L298.80 42.62C298.85 43.25 299.04 44.06 299.23 44.54L304.80 44.54C304.61 42.58 304.51 40.61 304.51 38.64ZM298.80 38.78C298.08 39.84 296.74 40.70 294.72 40.70C292.32 40.70 291.12 39.36 291.12 37.30C291.12 34.56 293.09 33.55 297.98 33.55L298.80 33.55Z"/></svg>